<?xml version="1.0" encoding="iso-8859-1"?>
<!-- Generator: Adobe Illustrator 19.0.0, SVG Export Plug-In . SVG Version: 6.00 Build 0)  -->
<svg version="1.1" id="Layer_1" xmlns="http://www.w3.org/2000/svg" xmlns:xlink="http://www.w3.org/1999/xlink" x="0px" y="0px"
	 viewBox="0 0 512 512" style="enable-background:new 0 0 512 512;" xml:space="preserve">
<g transform="translate(1 1)">
	<path style="fill:#FFDD09;" d="M92.867,41.667v426.667c0-18.773,12.8-34.133,29.867-34.133h294.4V7.533h-294.4
		C105.667,7.533,92.867,22.893,92.867,41.667"/>
	<g>
		<path style="fill:#FCC309;" d="M101.4,434.2h51.2V7.533h-51.2c-18.773,0-34.133,15.36-34.133,34.133v426.667
			C67.267,449.56,82.627,434.2,101.4,434.2"/>
		<path style="fill:#FCC309;" d="M122.733,434.2c-17.067,0-29.867,15.36-29.867,34.133c0,18.773,12.8,34.133,29.867,34.133h294.4
			V434.2H122.733z"/>
	</g>
	<path style="fill:#FFFFFF;" d="M92.867,468.333c0-18.773,12.8-34.133,29.867-34.133H101.4c-18.773,0-34.133,15.36-34.133,34.133
		c0,18.773,15.36,34.133,34.133,34.133h21.333C105.667,502.467,92.867,487.107,92.867,468.333"/>
	<g>
		<path style="fill:#FD9808;" d="M417.133,502.467h25.6V434.2h-25.6V502.467z"/>
		<path style="fill:#FD9808;" d="M417.133,434.2h25.6V7.533h-25.6V434.2z"/>
	</g>
	<path style="fill:#FFFFFF;" d="M92.867,41.667c0-18.773,12.8-34.133,29.867-34.133H101.4c-18.773,0-34.133,15.36-34.133,34.133
		v426.667c0-16.213,11.093-29.013,25.6-33.28V41.667z"/>
	<g>
		<path style="fill:#54C9FD;" d="M272.067,340.333v-42.667h51.2v42.667c0,14.507-11.093,25.6-25.6,25.6l0,0
			C283.16,365.933,272.067,354.84,272.067,340.333"/>
		<path style="fill:#54C9FD;" d="M297.667,144.067c-31.573,0.853-58.88,29.013-59.733,60.587
			c-0.853,15.36,4.267,29.013,13.653,40.107c12.8,15.36,20.48,34.133,20.48,53.76l0,0h51.2l0,0c0-19.627,6.827-37.547,19.627-52.053
			c9.387-10.24,14.507-23.893,14.507-39.253C357.4,173.08,330.947,143.213,297.667,144.067"/>
	</g>
	<path style="fill:#33A9F8;" d="M272.067,331.8h51.2v-34.133h-51.2V331.8z"/>
	<path d="M442.733,511H101.4c-23.893,0-42.667-18.773-42.667-42.667c0-23.893,18.773-42.667,42.667-42.667h341.333
		c5.12,0,8.533,3.413,8.533,8.533v68.267C451.267,507.587,447.853,511,442.733,511z M101.4,442.733c-14.507,0-25.6,11.093-25.6,25.6
		c0,14.507,11.093,25.6,25.6,25.6h332.8v-51.2H101.4z"/>
	<path d="M67.267,476.867c-5.12,0-8.533-3.413-8.533-8.533V41.667C58.733,17.773,77.507-1,101.4-1h341.333
		c5.12,0,8.533,3.413,8.533,8.533V434.2c0,5.12-3.413,8.533-8.533,8.533H101.4c-14.507,0-25.6,11.093-25.6,25.6
		C75.8,473.453,72.387,476.867,67.267,476.867z M101.4,16.067c-14.507,0-25.6,11.093-25.6,25.6V434.2
		c6.827-5.12,16.213-8.533,25.6-8.533h332.8v-409.6H101.4z"/>
	<path d="M408.6,476.867H109.933c-5.12,0-8.533-3.413-8.533-8.533c0-5.12,3.413-8.533,8.533-8.533H408.6
		c5.12,0,8.533,3.413,8.533,8.533C417.133,473.453,413.72,476.867,408.6,476.867z"/>
	<path d="M297.667,374.467c-18.773,0-34.133-15.36-34.133-34.133v-42.667c0-5.12,3.413-8.533,8.533-8.533h51.2
		c5.12,0,8.533,3.413,8.533,8.533v42.667C331.8,359.107,316.44,374.467,297.667,374.467z M280.6,306.2v34.133
		c0,9.387,7.68,17.067,17.067,17.067c9.387,0,17.067-7.68,17.067-17.067V306.2H280.6z"/>
	<path d="M272.067,306.2c-5.12,0-8.533-3.413-8.533-8.533c0-17.067-6.827-33.28-18.773-48.64
		c-10.24-11.947-16.213-28.16-15.36-45.227c1.707-35.84,33.28-68.267,68.267-68.267l0,0c17.067,0,34.133,6.827,46.933,18.773
		c13.653,13.653,22.187,32.427,22.187,52.053c0,16.213-5.973,32.427-17.067,44.373c-11.093,12.8-17.067,29.867-17.067,46.933
		c0,5.12-3.413,8.533-8.533,8.533c-0.853,0-1.707,0-2.56,0h-46.08C273.773,306.2,272.92,306.2,272.067,306.2z M279.747,289.133
		h34.987c1.707-17.92,9.387-34.987,21.333-49.493c7.68-9.387,12.8-21.333,12.8-33.28c0-14.507-5.973-29.867-17.067-40.107
		c-9.387-9.387-22.187-14.507-34.133-14.507l0,0c-26.453,0.853-50.347,24.747-51.2,52.053c-0.853,12.8,3.413,24.747,11.947,34.133
		C270.36,254.147,278.04,271.213,279.747,289.133z"/>
	<path d="M297.667,118.467c-5.12,0-8.533-3.413-8.533-8.533v-51.2c0-5.12,3.413-8.533,8.533-8.533s8.533,3.413,8.533,8.533v51.2
		C306.2,115.053,302.787,118.467,297.667,118.467z"/>
	<path d="M340.333,127c-1.707,0-3.413-0.853-5.12-1.707c-3.413-2.56-4.267-8.533-1.707-11.947l25.6-34.133
		c2.56-3.413,8.533-4.267,11.947-1.707c3.413,2.56,4.267,8.533,1.707,11.947l-25.6,34.133C345.453,126.147,342.893,127,340.333,127z
		"/>
	<path d="M255,127c-2.56,0-5.12-0.853-6.827-3.413l-25.6-34.133c-2.56-3.413-1.707-9.387,1.707-11.947
		c3.413-2.56,9.387-1.707,11.947,1.707l25.6,34.133c2.56,3.413,1.707,9.387-1.707,11.947C258.413,126.147,256.707,127,255,127z"/>
	<path d="M323.267,340.333h-51.2c-5.12,0-8.533-3.413-8.533-8.533v-34.133c0-5.12,3.413-8.533,8.533-8.533h51.2
		c5.12,0,8.533,3.413,8.533,8.533V331.8C331.8,336.92,328.387,340.333,323.267,340.333z M280.6,323.267h34.133V306.2H280.6V323.267z
		"/>
	<path d="M67.267,476.867c-5.12,0-8.533-3.413-8.533-8.533V41.667C58.733,17.773,77.507-1,101.4-1h51.2
		c5.12,0,8.533,3.413,8.533,8.533V434.2c0,5.12-3.413,8.533-8.533,8.533h-51.2c-14.507,0-25.6,11.093-25.6,25.6
		C75.8,473.453,72.387,476.867,67.267,476.867z M101.4,16.067c-14.507,0-25.6,11.093-25.6,25.6V434.2
		c6.827-5.12,16.213-8.533,25.6-8.533h42.667v-409.6H101.4z"/>
</g>
<g>
</g>
<g>
</g>
<g>
</g>
<g>
</g>
<g>
</g>
<g>
</g>
<g>
</g>
<g>
</g>
<g>
</g>
<g>
</g>
<g>
</g>
<g>
</g>
<g>
</g>
<g>
</g>
<g>
</g>
</svg>
